<?xml version="1.0" encoding="utf-8"?>
<!-- Generator: Adobe Illustrator 21.0.1, SVG Export Plug-In . SVG Version: 6.00 Build 0)  -->
<svg version="1.1" id="layer" xmlns="http://www.w3.org/2000/svg" xmlns:xlink="http://www.w3.org/1999/xlink" x="0px" y="0px"
	 viewBox="0 0 655.3 652" style="enable-background:new 0 0 655.3 652;" xml:space="preserve">
<style type="text/css">
	.st0{fill:url(#SVGID_1_);}
	.st1{fill:url(#SVGID_2_);}
	.st2{fill:url(#SVGID_3_);}
	.st3{fill:url(#SVGID_4_);}
	.st4{fill:url(#SVGID_5_);}
	.st5{fill:url(#SVGID_6_);}
	.st6{fill:url(#SVGID_7_);}
	.st7{fill:none;}
</style>
<g>
	<g>
		<g>
			
				<radialGradient id="SVGID_1_" cx="171.7569" cy="493.5527" r="491.7956" gradientTransform="matrix(1 0 0 -1 0 652)" gradientUnits="userSpaceOnUse">
				<stop  offset="0" style="stop-color:#80CFE3"/>
				<stop  offset="0.15" style="stop-color:#1AAACC"/>
				<stop  offset="0.3758" style="stop-color:#1259A5"/>
				<stop  offset="0.5" style="stop-color:#0E3192"/>
				<stop  offset="1" style="stop-color:#060D38"/>
			</radialGradient>
			<path class="st0" d="M327.7,512.5c-45.5-0.1-87.3-16.6-119.8-43.9L157.2,529c46.1,38.8,105.6,62.2,170.5,62.2
				c64.8,0,124.2-23.4,170.3-62.2l-50.7-60.4C414.9,495.9,373.2,512.4,327.7,512.5z"/>
			
				<radialGradient id="SVGID_2_" cx="171.7568" cy="493.5473" r="491.7908" gradientTransform="matrix(1 0 0 -1 0 652)" gradientUnits="userSpaceOnUse">
				<stop  offset="0" style="stop-color:#80CFE3"/>
				<stop  offset="0.15" style="stop-color:#1AAACC"/>
				<stop  offset="0.3758" style="stop-color:#1259A5"/>
				<stop  offset="0.5" style="stop-color:#0E3192"/>
				<stop  offset="1" style="stop-color:#060D38"/>
			</radialGradient>
			<path class="st1" d="M327.6,139.5c45.5,0.1,87.3,16.6,119.7,43.9L498,123c-46-38.8-105.4-62.2-170.1-62.2h-0.6
				c-64.7,0.1-124,23.5-170,62.2l50.7,60.4C240.4,156.1,282.1,139.6,327.6,139.5z"/>
		</g>
		<g>
			
				<radialGradient id="SVGID_3_" cx="171.2109" cy="493.5553" r="491.8004" gradientTransform="matrix(1 0 0 -1 0 652)" gradientUnits="userSpaceOnUse">
				<stop  offset="0" style="stop-color:#80CFE3"/>
				<stop  offset="0.15" style="stop-color:#1AAACC"/>
				<stop  offset="0.3758" style="stop-color:#1259A5"/>
				<stop  offset="0.5" style="stop-color:#0E3192"/>
				<stop  offset="1" style="stop-color:#060D38"/>
			</radialGradient>
			<path class="st2" d="M315.9,377.1V273.5h27.9v78.7h51.6l-3.9,24.9H315.9z"/>
			
				<radialGradient id="SVGID_4_" cx="165.6922" cy="493.5553" r="491.7888" gradientTransform="matrix(1 0 0 -1 0 652)" gradientUnits="userSpaceOnUse">
				<stop  offset="0" style="stop-color:#80CFE3"/>
				<stop  offset="0.15" style="stop-color:#1AAACC"/>
				<stop  offset="0.3758" style="stop-color:#1259A5"/>
				<stop  offset="0.5" style="stop-color:#0E3192"/>
				<stop  offset="1" style="stop-color:#060D38"/>
			</radialGradient>
			<path class="st3" d="M447.6,298.4v78.7h-27.9v-78.7h-29.5v-24.9h89.1l-5,24.9L447.6,298.4L447.6,298.4z"/>
			
				<radialGradient id="SVGID_5_" cx="171.2101" cy="493.5427" r="491.7724" gradientTransform="matrix(1 0 0 -1 0 652)" gradientUnits="userSpaceOnUse">
				<stop  offset="0" style="stop-color:#80CFE3"/>
				<stop  offset="0.15" style="stop-color:#1AAACC"/>
				<stop  offset="0.3758" style="stop-color:#1259A5"/>
				<stop  offset="0.5" style="stop-color:#0E3192"/>
				<stop  offset="1" style="stop-color:#060D38"/>
			</radialGradient>
			<path class="st4" d="M266.8,377.1H296l-41.3-103.7h-21.5l-41.3,103.7h29.2l4.7-13h36.6L266.8,377.1z M254.5,341.8h-20.7l10.7-29
				L254.5,341.8z"/>
			
				<radialGradient id="SVGID_6_" cx="163.4648" cy="493.5427" r="491.7977" gradientTransform="matrix(1 0 0 -1 0 652)" gradientUnits="userSpaceOnUse">
				<stop  offset="0" style="stop-color:#80CFE3"/>
				<stop  offset="0.15" style="stop-color:#1AAACC"/>
				<stop  offset="0.3758" style="stop-color:#1259A5"/>
				<stop  offset="0.5" style="stop-color:#0E3192"/>
				<stop  offset="1" style="stop-color:#060D38"/>
			</radialGradient>
			<path class="st5" d="M548.4,377.1h29.2l-41.3-103.7h-21.5l-41.3,103.7h29.2l4.7-13H544L548.4,377.1z M536.1,341.8h-20.7l10.7-29
				L536.1,341.8z"/>
			
				<radialGradient id="SVGID_7_" cx="175.0748" cy="493.5478" r="491.7911" gradientTransform="matrix(1 0 0 -1 0 652)" gradientUnits="userSpaceOnUse">
				<stop  offset="0" style="stop-color:#80CFE3"/>
				<stop  offset="0.15" style="stop-color:#1AAACC"/>
				<stop  offset="0.3758" style="stop-color:#1259A5"/>
				<stop  offset="0.5" style="stop-color:#0E3192"/>
				<stop  offset="1" style="stop-color:#060D38"/>
			</radialGradient>
			<path class="st6" d="M166.7,324c0,0.1-1.3-1-1.3-1c3.4-2.4,10.2-8.2,10.2-19.6c0-18-11.5-30.1-33.2-30.1H86l4.5,22.8l0,0v81.2
				h56.6c18.5,0,32.4-10.8,32.4-30.7C179.5,332,169.7,326.2,166.7,324z M147.8,306c0,3.8-2,7.9-8.6,7.9h-21.1v-15.8h21.1
				C145.8,298.1,147.8,302.2,147.8,306z M143,352.3h-24.9v-17H143c6.5,0,8.7,4.4,8.7,8.4C151.7,347.8,149.5,352.3,143,352.3z"/>
		</g>
	</g>
	<circle class="st7" cx="327.7" cy="326" r="265.2"/>
</g>
</svg>
