<?xml version="1.0" encoding="utf-8"?>
<!-- Generator: Adobe Illustrator 21.0.1, SVG Export Plug-In . SVG Version: 6.00 Build 0)  -->
<svg version="1.1" id="layer" xmlns="http://www.w3.org/2000/svg" xmlns:xlink="http://www.w3.org/1999/xlink" x="0px" y="0px"
	 viewBox="0 0 655.3 652" style="enable-background:new 0 0 655.3 652;" xml:space="preserve">
<style type="text/css">
	.st0{fill:#005138;}
	.st1{fill:#B9A400;}
</style>
<g>
	<polyline class="st0" points="345.9,592.7 345.9,342.3 388.7,342.3 554.2,539 554.2,342.3 594.2,342.3 594.2,592.7 551.7,592.7 
		385.9,396.1 385.9,592.7 345.9,592.7 	"/>
	<path class="st0" d="M109.5,278.8h84.3c14.4,0,24.6-0.4,30.6-1.1c10.2-1.4,19-3.5,26-6.7c7-3.2,12.6-7.7,17.2-13.7
		c4.6-6,6.7-13,6.7-21.1c0-9.1-3.2-17.2-9.8-24.2c-6.3-7-15.5-11.6-27-14.4c-11.2-2.8-27.7-4.2-49.5-4.2h-78.3v85.4 M109.5,163.9
		h73.1c20,0,34.1-1.1,42.8-2.8c11.2-2.5,20-6.7,25.6-12.3c6-5.6,8.8-13,8.8-21.8c0-8.1-2.8-15.5-8.1-21.8c-5.3-6.3-13-10.5-23.2-13
		s-27-3.5-51.6-3.5h-67.4L109.5,163.9L109.5,163.9z M64.9,307.9V59.3H192c26,0,46.7,2.5,62.2,7.7c15.8,4.9,28.1,12.6,36.9,23.2
		c8.8,10.5,13.3,21.4,13.3,32.7c0,10.5-3.9,20.7-11.9,29.9c-7.7,9.5-19.7,16.9-35.5,22.8c20.4,4.6,36.2,11.9,47.1,22.5
		c11.2,10.5,16.5,23.2,16.5,37.6c0,11.6-3.5,22.5-10.2,32.7c-6.7,9.8-14.8,17.6-24.6,23.2c-9.8,5.3-22.1,9.5-37.2,12.3
		c-14.8,2.8-33,4.2-54.4,4.2H64.9V307.9z"/>
	<rect x="345.5" y="59.3" class="st1" width="248.7" height="248.7"/>
	<path class="st1" d="M61.1,342.3h115.5l-115.2,249L61.1,342.3 M196.6,342l113.4,0.4v248.7L196.6,342z M290.4,591.3H81.1l34.4-75.2
		h140.8L290.4,591.3z M250.4,502.5H121.1l65.7-144.7L250.4,502.5z"/>
</g>
</svg>
