<?xml version="1.0" encoding="utf-8"?>
<!-- Generator: Adobe Illustrator 21.0.1, SVG Export Plug-In . SVG Version: 6.00 Build 0)  -->
<svg version="1.1" id="layer" xmlns="http://www.w3.org/2000/svg" xmlns:xlink="http://www.w3.org/1999/xlink" x="0px" y="0px"
	 viewBox="0 0 2097.2 652" style="enable-background:new 0 0 2097.2 652;" xml:space="preserve">
<style type="text/css">
	.st0{fill:#005138;}
	.st1{fill:#B9A400;}
</style>
<g>
	<polyline class="st0" points="381.9,593.8 381.9,343.4 424.7,343.4 590.2,540.1 590.2,343.4 630.2,343.4 630.2,593.8 587.7,593.8 
		421.9,397.2 421.9,593.8 381.9,593.8 	"/>
	<path class="st0" d="M145.5,279.9h84.3c14.4,0,24.6-0.4,30.6-1.1c10.2-1.4,19-3.5,26-6.7c7-3.2,12.6-7.7,17.2-13.7
		c4.6-6,6.7-13,6.7-21.1c0-9.1-3.2-17.2-9.8-24.2c-6.3-7-15.5-11.6-27-14.4c-11.2-2.8-27.7-4.2-49.5-4.2h-78.3V279.9 M145.5,165
		h73.1c20,0,34.1-1.1,42.8-2.8c11.2-2.5,20-6.7,25.6-12.3c6-5.6,8.8-13,8.8-21.8c0-8.1-2.8-15.5-8.1-21.8c-5.3-6.3-13-10.5-23.2-13
		s-27-3.5-51.6-3.5h-67.4V165z M100.9,309V60.4h127.1c26,0,46.7,2.5,62.2,7.7c15.8,4.9,28.1,12.6,36.9,23.2
		c8.8,10.5,13.3,21.4,13.3,32.7c0,10.5-3.9,20.7-11.9,29.9c-7.7,9.5-19.7,16.9-35.5,22.8c20.4,4.6,36.2,11.9,47.1,22.5
		c11.2,10.5,16.5,23.2,16.5,37.6c0,11.6-3.5,22.5-10.2,32.7c-6.7,9.8-14.8,17.6-24.6,23.2c-9.8,5.3-22.1,9.5-37.2,12.3
		c-14.8,2.8-33,4.2-54.4,4.2H100.9z"/>
	<path class="st0" d="M748.9,456.5v26.3c0,11.9,0.7,24.9,1.4,37.9c0.7,13,1.8,26,2.5,38.3h-0.4c-6-21.8-11.6-37.9-17.9-53.4
		l-19.7-48.8h-26v134.5h25.3v-25.3c0-10.9-0.7-24.2-1.4-37.6c-0.7-13.7-1.8-27.4-2.8-38.3h0.4c6,21.1,11.6,37.6,17.9,53.4l19.7,47.8
		h26.3V456.9h-25.3"/>
	<path class="st0" d="M820.2,537.3l7.4-38.3c1.4-6.3,2.1-12.3,2.5-18.6c0.4-3.2,0.7-6,1.1-9.1h0.4c0.4,2.8,0.7,6,1.1,9.1
		c0.7,6.3,1.4,12.3,2.5,18.6l7,38.3H820.2 M782.6,591h27l6.7-34.1h29.5l6.7,34.1h27L849,456.5h-34.1L782.6,591z"/>
	<path class="st0" d="M912.9,591v-42.5c0-26.7-0.7-53.4-2.1-80.1h1.1L938.2,591h15.1l27-122.6h0.4c-1.8,26.7-2.1,53.4-2.1,80.1V591
		h25.3V456.5h-40L950.5,519c-2.1,8.8-2.8,17.9-3.9,30.9h-0.4c-1.1-10.5-2.5-20.7-4.6-30.9l-13.3-62.5h-40V591H912.9"/>
	<path class="st0" d="M1074.1,497.3h24.2c-0.4-13.3,1.1-44.3-39-44.3c-26.7,0-39.3,12.6-39.3,35.5c0,7,2.1,14.8,6.3,20.7
		c10.2,13.7,26.3,21.1,39.7,30.9c6.3,4.6,10.2,9.8,10.2,17.9c0,10.2-4.9,15.8-15.5,15.8c-12.3,0-15.8-9.5-15.8-22.5v-7.7h-25.3v9.8
		c0,23.9,10.9,40.7,40.7,40.7c24.6,0,41.4-13.3,41.4-38.6c0-11.6-2.8-19.7-11.2-28.1c-7-6.7-22.1-16.9-30.6-22.1
		c-7.7-4.9-14.4-9.1-14.4-19.3c0-9.1,5.3-12.6,13.7-12.6C1073.1,473.7,1074.1,485.3,1074.1,497.3"/>
	<path class="st0" d="M715.5,339.6l7.4-38.3c1.4-6.3,2.1-12.3,2.5-18.6c0.4-3.2,0.7-6,1.1-9.1h0.4c0.4,2.8,0.7,6,1.1,9.1
		c0.7,6.3,1.4,12.3,2.5,18.6l7,38.3H715.5 M678.3,393.7h27l6.7-34.1h29.5l6.7,34.1h27l-30.6-134.5h-34.1L678.3,393.7z"/>
	<path class="st0" d="M808.6,317.4v-38.6h11.6c14,0,20.4,2.5,20.4,17.9c0,16.2-7.4,21.1-18.3,21.1h-13.7 M783.7,393.7H809v-56.2
		h16.9c9.8,0,20.4-1.8,28.1-8.1c9.5-7.4,12.6-20.4,12.6-32c0-19-7.4-38.3-31.3-38.3H784v134.5H783.7z"/>
	<path class="st0" d="M915,373.6h-10.9v-95.2h16.5c15.1,0,18.3,12.6,18.3,44.3C938.9,362,937.5,373.6,915,373.6 M879.2,393.7h46.4
		c6.3,0,13-0.4,18.6-3.5c20.7-11.9,20.7-42.8,20.7-69.2c0-22.1-1.8-37.2-7.4-46.4c-7.7-12.6-20-15.1-26-15.1h-52.3V393.7z"/>
	<path class="st0" d="M1007.7,315.7v-37.2h18.6c9.5,0,15.8,2.8,15.8,17.9c0,13.3-6.3,19.3-14.8,19.3H1007.7 M1007.7,335.7h4.6
		c7,0,14.4-0.4,21.4,1.8c8.8,2.5,8.4,13.7,8.8,22.1c0.4,9.1-0.4,25.6,2.8,34.1h27.7v-2.5c-6-3.9-5.3-36.9-5.3-42.5
		c0-13-4.6-22.5-19.3-24.2v-0.4c16.9-2.5,20.7-17.9,20.7-32.3c0-24.6-16.5-32.3-38.3-32.3h-47.4V394h25.3v-58.3H1007.7z"/>
	<path class="st0" d="M1112.1,347.3v-37.2c0-10.5-1.8-34.1,18.3-34.1c18.6,0,18.3,23.9,18.3,34.8v34.4c0,13,0,31.3-18.3,31.3
		C1113.1,376.4,1112.1,358.2,1112.1,347.3 M1086.4,315.3v19.3c0,35.8,2.8,62.2,43.9,62.2c41.4,0,43.9-26.3,43.9-62.2v-19.3
		c0-34.4-3.9-59.7-43.9-59.7C1089.9,255.6,1086.4,281.3,1086.4,315.3z"/>
	<path class="st0" d="M1238.1,250.4l18.6-23.5h-18.3l-10.2,13.3l-10.5-13.3h-17.9l18.3,23.5H1238.1 M1243.4,299.9h24.2
		c-0.4-13.3,1.1-44.3-39-44.3c-26.7,0-39.3,12.6-39.3,35.5c0,7,2.1,14.8,6.3,20.7c10.2,13.7,26.3,21.1,39.7,30.9
		c6.3,4.6,10.2,9.8,10.2,17.9c0,10.2-4.9,15.8-15.5,15.8c-12.3,0-15.8-9.5-15.8-22.5v-7.7h-25.6v9.8c0,23.9,10.9,40.7,40.7,40.7
		c24.6,0,41.4-13.3,41.4-38.6c0-11.6-2.8-19.7-11.2-28.1c-7-6.7-22.1-16.9-30.6-22.1c-7.7-4.9-14.4-9.1-14.4-19.3
		c0-9.1,5.3-12.6,13.7-12.6C1242.7,276,1243.8,287.9,1243.4,299.9z"/>
	<rect x="1287" y="258.8" class="st0" width="25.3" height="134.5"/>
	<path class="st0" d="M1392,258.8v26.3c0,11.9,0.7,24.9,1.4,37.9c0.7,13,1.8,26,2.5,38.3h-0.4c-6-21.8-11.6-37.9-17.9-53.4
		l-19.7-48.8h-26v134.5h25.3v-25.3c0-10.9-0.7-24.2-1.4-37.6c-0.7-13.7-1.8-27.4-2.8-38.3h0.4c6,21.1,11.6,37.6,17.9,53.4l19.7,47.8
		h26.3V259.1H1392"/>
	<path class="st0" d="M1463.3,339.6l7.4-38.3c1.4-6.3,2.1-12.3,2.5-18.6c0.4-3.2,0.7-6,1.1-9.1h0.4c0.4,2.8,0.7,6,1.1,9.1
		c0.7,6.3,1.4,12.3,2.5,18.6l7,38.3H1463.3 M1425.7,393.7h27l6.7-34.1h29.5l6.7,34.1h27l-30.6-134.5H1458L1425.7,393.7z
		 M1435.9,244.4h77.6v-11.9h-77.6V244.4z"/>
	<path class="st0" d="M1577.1,250.4l18.6-23.5h-18.3l-10.2,13.3l-10.5-13.3h-17.9l18.3,23.5H1577.1 M1582.3,299.9h24.2
		c-0.4-13.3,1.1-44.3-39-44.3c-26.7,0-39.3,12.6-39.3,35.5c0,7,2.1,14.8,6.3,20.7c10.2,13.7,26.3,21.1,39.7,30.9
		c6.3,4.6,10.2,9.8,10.2,17.9c0,10.2-4.9,15.8-15.5,15.8c-12.3,0-15.8-9.5-15.8-22.5v-7.7h-25.3v9.8c0,23.9,10.9,40.7,40.7,40.7
		c24.6,0,41.4-13.3,41.4-38.6c0-11.6-2.8-19.7-11.2-28.1c-7-6.7-22.1-16.9-30.6-22.1c-7.7-4.9-14.4-9.1-14.4-19.3
		c0-9.1,5.3-12.6,13.7-12.6C1581.6,276,1582.7,287.9,1582.3,299.9z"/>
	<path class="st0" d="M1652.9,339.6l7.4-38.3c1.4-6.3,2.1-12.3,2.5-18.6c0.4-3.2,0.7-6,1.1-9.1h0.4c0.4,2.8,0.7,6,1.1,9.1
		c0.7,6.3,1.4,12.3,2.5,18.6l7,38.3H1652.9 M1615.3,393.7h27l6.7-34.1h29.5l6.7,34.1h27l-30.6-134.5h-34.1L1615.3,393.7z"/>
	<path class="st0" d="M1780.8,258.8v26.3c0,11.9,0.7,24.9,1.4,37.9c0.7,13,1.8,26,2.5,38.3h-0.4c-6-21.8-11.6-37.9-17.9-53.4
		l-19.7-48.8h-26v134.5h25.3v-25.3c0-10.9-0.7-24.2-1.4-37.6c-0.7-13.7-1.8-27.4-2.8-38.3h0.4c6,21.1,11.6,37.6,17.9,53.4l19.7,47.8
		h26.3V259.1h-25.3"/>
	<path class="st0" d="M1852.1,339.6l7.4-38.3c1.4-6.3,2.1-12.3,2.5-18.6c0.4-3.2,0.7-6,1.1-9.1h0.4c0.4,2.8,0.7,6,1.1,9.1
		c0.7,6.3,1.4,12.3,2.5,18.6l7,38.3H1852.1 M1814.8,393.7h27l6.7-34.1h29.5l6.7,34.1h27l-30.6-134.5h-34.1L1814.8,393.7z"/>
	<path class="st0" d="M1971.5,299.9h24.2c-0.4-13.3,1.1-44.3-39-44.3c-26.7,0-39.3,12.6-39.3,35.5c0,7,2.1,14.8,6.3,20.7
		c10.2,13.7,26.3,21.1,39.7,30.9c6.3,4.6,10.2,9.8,10.2,17.9c0,10.2-4.9,15.8-15.5,15.8c-12.3,0-15.8-9.5-15.8-22.5v-7.7H1917v9.8
		c0,23.9,10.9,40.7,40.7,40.7c24.6,0,41.4-13.3,41.4-38.6c0-11.6-2.8-19.7-11.2-28.1c-7-6.7-22.1-16.9-30.6-22.1
		c-7.7-4.9-14.4-9.1-14.4-19.3c0-9.1,5.3-12.6,13.7-12.6C1970.4,276,1971.5,287.9,1971.5,299.9"/>
	<path class="st0" d="M718.7,176.3h-5.3v-40.7h9.8c15.5,0,18.6,6,18.6,20.7c0,6.7-1.1,15.5-7.7,18.6
		C729.2,176.6,724,176.3,718.7,176.3 M718,115.8h-4.6V81.1H725c11.6,0,13.7,5.3,13.7,15.5c0,6.3-0.4,11.2-2.8,14.4
		C732,116.2,724,115.8,718,115.8z M688.1,195.9h44.3c17.9,0,27.7-7,33-24.2c1.8-5.3,1.8-10.9,1.8-16.5c0-17.6-5.3-29.2-19.7-31.3
		v-0.4c13.7-4.9,16.2-16.5,16.2-28.1c0-9.1-1.1-16.9-6.7-24.2c-7-9.1-17.9-9.8-28.4-9.8h-40.4V195.9z"/>
	<path class="st0" d="M810.4,142.2l7.4-38.3c1.4-6.3,2.1-12.3,2.5-18.6c0.4-3.2,0.7-6,1.1-9.1h0.4c0.4,2.8,0.7,6,1.1,9.1
		c0.7,6.3,1.4,12.3,2.5,18.6l7,38.3H810.4 M772.8,195.9h27l6.7-34.1H836l6.7,34.1h27L839.2,61.4h-34.1L772.8,195.9z"/>
	<polyline class="st0" points="878.1,195.9 950.1,195.9 950.1,176.3 903.4,176.3 903.4,61.4 878.1,61.4 878.1,195.9 	"/>
	<polyline class="st0" points="936.1,61.4 936.1,81.1 965.2,81.1 965.2,195.9 990.5,195.9 990.5,81.1 1019.7,81.1 1019.7,61.4 
		936.1,61.4 	"/>
	<rect x="1030.2" y="61.4" class="st0" width="25.3" height="134.5"/>
	<path class="st0" d="M1089.2,153.1h-25.3c-0.7,12.3,0.7,27.4,3.5,32c6.7,10.5,16.9,13.7,26,13.7c12.3,0,23.2-1.1,30.6-8.8
		c8.1-8.8,7.4-21.8,7.4-30.9v-98h-25.3v103.6c0,7.4,0,14-9.1,14c-6,0-8.1-4.2-8.1-9.1v-16.5"/>
	<path class="st0" d="M1176.3,142.2l7.4-38.3c1.4-6.3,2.1-12.3,2.5-18.6c0.4-3.2,0.7-6,1.1-9.1h0.4c0.4,2.8,0.7,6,1.1,9.1
		c0.7,6.3,1.4,12.3,2.5,18.6l7,38.3H1176.3 M1138.7,195.9h27l6.7-34.1h29.5l6.7,34.1h27l-30.6-134.5h-34.1L1138.7,195.9z"/>
	<path class="st0" d="M1295.4,102.2h24.2c-0.4-13.3,1.1-44.3-39-44.3c-26.7,0-39.3,12.6-39.3,35.5c0,7,2.1,14.8,6.3,20.7
		c10.2,13.7,26.3,21.1,39.7,30.9c6.3,4.6,10.2,9.8,10.2,17.9c0,10.2-4.9,15.8-15.5,15.8c-12.3,0-15.8-9.5-15.8-22.5v-7.7h-25.3v9.8
		c0,23.9,10.9,40.7,40.7,40.7c24.6,0,41.4-13.3,41.4-38.6c0-11.6-2.8-19.7-11.2-28.1c-7-6.7-22.1-16.9-30.6-22.1
		c-7.7-4.9-14.4-9.1-14.4-19.3c0-9.1,5.3-12.6,13.7-12.6C1294.7,78.3,1295.7,90.2,1295.4,102.2"/>
	<rect x="381.5" y="60.4" class="st1" width="248.7" height="248.7"/>
	<path class="st1" d="M97.1,343.4h115.5l-115.2,249L97.1,343.4 M232.6,343.1l113.4,0.4v248.7L232.6,343.1z M326.4,592.4H117.1
		l34.4-75.2h140.8L326.4,592.4z M286.4,503.6H157.1l65.7-144.7L286.4,503.6z"/>
</g>
</svg>
