<?xml version="1.0" encoding="utf-8"?>
<!-- Generator: Adobe Illustrator 21.0.1, SVG Export Plug-In . SVG Version: 6.00 Build 0)  -->
<svg version="1.1" id="layer" xmlns="http://www.w3.org/2000/svg" xmlns:xlink="http://www.w3.org/1999/xlink" x="0px" y="0px"
	 viewBox="0 0 655.3 652" style="enable-background:new 0 0 655.3 652;" xml:space="preserve">
<style type="text/css">
	.st0{fill:#E30613;}
</style>
<g>
	<rect x="28.3" y="433.4" class="st0" width="598.6" height="9.2"/>
	<path d="M615.6,468.2h-7.4v10.7h7.4c3.5,0,6-1.9,6-5.3C621.6,470.3,619.2,468.2,615.6,468.2 M616,483.4h-7.6V496h-5.1v-32h12.7
		c6.5,0,10.7,4.2,10.7,9.7S622.5,483.4,616,483.4 M582.8,496.2c-6.8,0-12-4.4-12-11.1v-21.2h5.1v21c0,4.3,2.8,7,7,7c4.2,0,7-2.7,7-7
		v-21h5.1v21.2C594.9,491.7,589.7,496.2,582.8,496.2 M556.7,470c-1.1-1.2-3-2-5-2c-2,0-3.7,0.8-5,2c-1.6,1.6-2,3.4-2,9.9
		c0,6.4,0.3,8.3,2,9.9c1.1,1.2,3,2,5,2c2,0,3.7-0.8,5-2c1.6-1.6,2-3.5,2-9.9C558.7,473.4,558.4,471.7,556.7,470 M560.6,492.8
		c-2.3,2.2-5.2,3.4-8.9,3.4c-3.5,0-6.5-1.2-8.7-3.4c-3.3-3.1-3.3-6.8-3.3-12.9c0-6.2-0.1-9.7,3.3-12.9c2.3-2.2,5.2-3.4,8.7-3.4
		c3.5,0,6.5,1.2,8.9,3.4c3.3,3.1,3.2,6.8,3.2,12.9C563.8,486.1,563.9,489.6,560.6,492.8 M522.6,468.2H515v10.1h7.5
		c3.4,0,5.8-1.9,5.8-5C528.3,470.1,526,468.2,522.6,468.2 M528.5,496l-7.1-13.5h-6.3V496H510v-32h13c6.3,0,10.4,3.9,10.4,9.4
		c0,4.6-2.8,7.5-6.6,8.5l7.7,14.2C534.4,496,528.5,496,528.5,496z M499.7,492.6c-2.4,2.4-5.4,3.7-9.2,3.7c-3.4,0-6.5-1.2-8.7-3.4
		c-3.3-3.1-3.3-6.8-3.3-12.9c0-6.2-0.1-9.7,3.3-12.9c2.3-2.2,5.2-3.4,8.7-3.4c4.6,0,7.1,1.3,10.1,4.2l-3.4,3.3
		c-2.1-2-3.7-3.1-6.6-3.1c-2,0-3.7,0.8-5,2c-1.6,1.6-2,3.4-2,9.9c0,6.4,0.3,8.3,2,10.1c1.1,1.2,3,1.9,5,1.9c2.2,0,4-0.8,5.4-2.2
		c1.2-1.3,1.6-3.1,1.6-5.1V483h-7v-4.4h12v4.9C502.7,487.6,501.9,490.3,499.7,492.6 M439.9,496v-32h21.3v4.3h-16.3v9.3h13.9v4.3
		h-13.9v9.6h16.3v4.3L439.9,496L439.9,496z M423.6,496.2c-3.4,0-6.5-1.2-8.7-3.4c-3.3-3.1-3.3-6.8-3.3-12.9c0-6.2-0.1-9.7,3.3-12.9
		c2.3-2.2,5.3-3.4,8.7-3.4c4.2,0,6.8,1.5,9.3,3.7l-3.4,3.3c-1.6-1.6-3.2-2.8-6-2.8c-2,0-3.7,0.8-4.9,1.9c-1.6,1.6-2,3.5-2,10.1
		c0,6.4,0.3,8.3,2,10.1c1.1,1.2,2.8,1.9,4.9,1.9c2.8,0,4.2-1,6-2.8l3.4,3.3C430.5,494.8,427.8,496.2,423.6,496.2 M399.3,496
		l-15.4-22.5V496h-5.1v-32h4.6l15.4,22.4V464h5.1v32H399.3z M359.7,471.2l-5.2,14.2h10.3L359.7,471.2z M368.5,496l-2.3-6.5h-13.3
		l-2.3,6.5h-5.4l12.3-32h4.1l12.3,32C374,496,368.5,496,368.5,496z M331,468.2h-7.5v10.1h7.5c3.4,0,5.8-1.9,5.8-5
		C336.8,470.1,334.4,468.2,331,468.2 M336.8,496l-7.1-13.5h-6.3V496h-5.1v-32h12.9c6.3,0,10.4,3.9,10.4,9.4c0,4.6-2.8,7.5-6.6,8.5
		l7.7,14.2C342.8,496,336.8,496,336.8,496z M298,496.2c-6.8,0-12-4.4-12-11.1v-21.2h5.1v21c0,4.3,2.8,7,6.8,7c4.1,0,7-2.7,7-7v-21
		h5.1v21.2C310.1,491.7,304.8,496.2,298,496.2 M267.6,496.2c-5.1,0-8.6-1.1-11.8-4.2l3.4-3.2c2.4,2.3,5.1,3.1,8.6,3.1
		c4.3,0,7-1.8,7-4.9c0-1.5-0.4-2.5-1.3-3.3c-0.8-0.8-1.6-1.1-3.7-1.3l-4-0.6c-2.8-0.3-4.9-1.3-6.3-2.5c-1.6-1.5-2.4-3.5-2.4-6.1
		c0-5.6,4.2-9.4,11.1-9.4c4.4,0,7.5,1.1,10.4,3.7l-3.3,3.1c-2-1.9-4.6-2.4-7.3-2.4c-4,0-6.1,2.2-6.1,5c0,1.1,0.3,2.2,1.3,2.8
		c0.8,0.8,2.2,1.2,3.7,1.5l3.7,0.6c3.1,0.4,4.9,1.1,6.3,2.4c1.9,1.5,2.8,3.7,2.8,6.6C279.6,492.7,274.6,496.2,267.6,496.2
		 M245.2,496l-15.4-22.5V496h-5.1v-32h4.6l15.4,22.4V464h5.1v32C249.8,496,245.2,496,245.2,496z M210.7,463.9h5.1v32h-5.1
		C210.7,496,210.7,463.9,210.7,463.9z M180.3,471.2l-5.2,14.2h10.3L180.3,471.2z M189.1,496l-2.3-6.5h-13.3l-2.3,6.5h-5.4l12.3-32
		h4.1l12.3,32C194.5,496,189.1,496,189.1,496z M156.3,496l-15.5-22.6V496h-5.1v-32h4.6l15.4,22.4v-22.4h5.1v32L156.3,496L156.3,496z
		 M122.3,496l-15.4-22.5V496h-5.1v-32h4.6l15.4,22.4V464h5.1v32H122.3z M73.2,496v-32h21.3v4.3H78.3v9.3h13.9v4.3H78.3v9.6h16.3v4.3
		L73.2,496L73.2,496z M59.2,463.9h5.1v32h-5.1V463.9z M43.5,496h-4l-11-32h5.2l7.7,23.3l7.7-23.3h5.4L43.5,496z"/>
	<path class="st0" d="M549.5,289.6c16.8,0,32.7,3.4,47.3,9.5c-1.2-66.5-40-116.4-95.5-143.4v143.7
		C516.2,293.1,532.4,289.6,549.5,289.6"/>
	<path class="st0" d="M279,318.4v-72.2h34.6V216H279v-30.7h-30.2v133.1c0,40.5,32.3,73.3,71.9,73.3V361
		C297.7,360.9,279,341.8,279,318.4"/>
	<path class="st0" d="M160.5,245.1c-15.6,0-29.9,5.1-41.8,13.7v-73.4H88.6v203h30.2V378c11.8,8.6,26.2,13.7,41.8,13.7
		c39.7,0,71.9-32.9,71.9-73.3C232.5,277.9,200.2,245.1,160.5,245.1 M160.5,360.9c-23,0-41.8-19-41.8-42.5
		c0-23.5,18.7-42.5,41.8-42.5s41.8,19,41.8,42.5C202.3,342,183.6,360.9,160.5,360.9"/>
	<path class="st0" d="M441.1,246.2v12.6c-11.8-8.6-26.2-13.7-41.8-13.7c-39.7,0-71.9,32.9-71.9,73.3s32.3,73.3,71.9,73.3
		c15.6,0,29.9-5.1,41.8-13.7v10.3h30.2v-142H441.1z M399.3,360.9c-23,0-41.8-19-41.8-42.5c0-23.5,18.7-42.5,41.8-42.5
		c23.1,0,41.8,19,41.8,42.5C441,341.9,422.4,360.9,399.3,360.9"/>
</g>
</svg>
