<?xml version="1.0" encoding="utf-8"?>
<!-- Generator: Adobe Illustrator 21.0.1, SVG Export Plug-In . SVG Version: 6.00 Build 0)  -->
<svg version="1.1" id="layer" xmlns="http://www.w3.org/2000/svg" xmlns:xlink="http://www.w3.org/1999/xlink" x="0px" y="0px"
	 viewBox="0 0 2277.2 652" style="enable-background:new 0 0 2277.2 652;" xml:space="preserve">
<style type="text/css">
	.st0{fill:#E31E24;}
	.st1{fill:#2B2A29;}
	.st2{fill:#007E3C;}
</style>
<g id="Layer_x0020_1_1_">
	<g id="_1947867312432_1_">
		<polygon class="st0" points="125.1,415.2 2152.1,415.2 2152.1,384.8 125.1,384.8 		"/>
		<polygon class="st1" points="195.3,489.1 169.4,566.8 143.1,489.1 125.5,489.1 162.6,596 176.1,596 213.6,489.1 		"/>
		<polygon class="st1" points="229.8,596 246.7,596 246.7,489.1 229.8,489.1 		"/>
		<polygon class="st1" points="276.7,489.1 276.7,596 349.1,596 349.1,581.4 293.9,581.4 293.9,549.5 341.2,549.5 341.2,534.9 
			293.9,534.9 293.9,503.7 349.1,503.7 349.1,489.1 		"/>
		<polygon class="st1" points="441.4,489.1 441.4,564.1 388.8,489.1 373.1,489.1 373.1,596 390.3,596 390.3,520.6 442.9,596 
			458.6,596 458.6,489.1 		"/>
		<polygon class="st1" points="556.5,489.1 556.5,564.1 504.4,489.1 488.6,489.1 488.6,596 505.9,596 505.9,520.6 558,596 
			573.8,596 573.8,489.1 		"/>
		<path class="st1" d="M631.9,489.1L590.3,596h18.4l7.9-21.4h44.6l7.9,21.4h18.4l-41.6-106.9H631.9L631.9,489.1z M639.4,513.1
			l17.3,47.6h-34.9L639.4,513.1z"/>
		<polygon class="st1" points="742.6,596 759.9,596 759.9,489.1 742.6,489.1 		"/>
		<polygon class="st1" points="857.8,489.1 857.8,564.1 805.6,489.1 789.9,489.1 789.9,596 807.1,596 807.1,520.6 859.3,596 
			875,596 875,489.1 		"/>
		<path class="st1" d="M935.1,597.2c-16.9,0-29.3-3.8-40.1-14.3l11.3-10.5c8.3,7.9,17.3,10.1,28.9,10.1c14.6,0,23.3-6,23.3-16.5
			c0-4.5-1.5-8.6-4.5-11.3c-3-2.6-5.6-3.8-12.4-4.5l-13.5-1.9c-9.4-1.1-16.5-4.1-21.4-8.6c-5.6-4.9-8.3-11.6-8.3-20.3
			c0-18.8,14.3-31.5,37.9-31.5c15,0,25.5,3.4,35.3,12l-10.9,10.1c-7.1-6.4-15-8.3-24.8-8.3c-13.5,0-20.6,7.1-20.6,16.9
			c0,3.8,1.1,7.5,4.1,10.1c3,2.3,7.5,4.1,12.8,4.9l12.8,1.9c10.5,1.5,16.5,4.1,21,7.9c6.4,5.3,9.4,12.8,9.4,22.1
			C976,585.2,958.7,597.2,935.1,597.2L935.1,597.2z"/>
		<path class="st1" d="M1038.2,597.2c-23.3,0-40.5-15-40.5-37.1v-70.9h17.3v70.2c0,14.3,9,23.3,23.3,23.3c14.3,0,23.6-9,23.6-23.3
			v-70.2h17.3V560C1079.1,582.2,1061.5,597.2,1038.2,597.2z"/>
		<path class="st1" d="M1150,503.7h-25.5v33.4h25.5c11.3,0,19.1-6,19.1-16.5C1169.2,509.7,1161.3,503.7,1150,503.7z M1169.9,596
			l-23.6-45h-21.4v45h-17.3V489.1h43.9c21.4,0,35.3,13.1,35.3,31.1c0,15.4-9.8,25.1-22.5,28.5l25.9,47.3H1169.9L1169.9,596z"/>
		<path class="st1" d="M1247.2,513.1l-17.6,47.6h34.9L1247.2,513.1z M1277.2,596l-7.9-21.4h-44.6l-7.9,21.4h-18.4l41.6-106.9h13.9
			l41.6,106.9H1277.2z"/>
		<polygon class="st1" points="1381.5,596 1329,520.6 1329,596 1312.1,596 1312.1,489.1 1327.9,489.1 1380,564.1 1380,489.1 
			1397.3,489.1 1397.3,596 		"/>
		<path class="st1" d="M1464.1,597.2c-11.6,0-21.8-4.1-29.6-11.6c-11.3-10.5-10.9-22.5-10.9-43.1s0-32.6,10.9-43.1
			c7.9-7.1,18-11.3,29.6-11.3c14.3,0,23.3,4.9,31.5,12.8l-11.6,10.9c-6-5.6-10.9-9-20.3-9c-6.8,0-12.8,2.3-16.9,6.4
			c-5.6,5.6-6.8,12-6.8,33.4c0,21.4,1.1,27.8,6.8,33.4c4.1,4.1,10.1,6.4,16.9,6.4c9.4,0,14.3-3.4,20.3-9l11.6,10.9
			C1486.9,592.3,1477.9,597.2,1464.1,597.2L1464.1,597.2z"/>
		<polygon class="st1" points="1519.2,596 1519.2,489.1 1591.6,489.1 1591.6,503.7 1536.5,503.7 1536.5,534.9 1583.4,534.9 
			1583.4,549.5 1536.5,549.5 1536.5,581.4 1591.6,581.4 1591.6,596 		"/>
		<path class="st1" d="M1721.8,584.8c-7.9,7.9-18.4,12.4-30.8,12.4c-11.6,0-22.1-4.1-29.6-11.6c-11.3-10.5-10.9-22.5-10.9-43.1
			s-0.4-32.6,10.9-43.1c7.9-7.1,17.6-11.3,29.6-11.3c15.4,0,24,4.5,34.1,14.3l-11.6,10.9c-7.1-6.8-12.4-10.5-22.5-10.5
			c-6.8,0-12.8,2.6-16.9,6.8c-5.6,5.6-6.8,11.6-6.8,33.4c0,21.4,1.1,27.8,6.8,33.4c4.1,4.1,10.1,6.4,16.9,6.4c7.5,0,13.5-2.6,18-7.5
			c4.1-4.5,5.6-10.1,5.6-16.9v-6H1691v-13.9h40.5v16.1C1731.5,568.3,1729.3,577.3,1721.8,584.8z"/>
		<path class="st1" d="M1799.4,503.7h-25.5v33.4h25.5c11.3,0,19.1-6,19.1-16.5C1818.6,509.7,1810.7,503.7,1799.4,503.7z M1819.3,596
			l-24-45h-21.4v45h-17.3V489.1h43.9c21.4,0,35.3,13.1,35.3,31.1c0,15.4-9.8,25.1-22.5,28.5l26.3,47.3H1819.3z"/>
		<path class="st1" d="M1915,509.4c-4.1-4.1-10.1-6.8-16.9-6.8c-6.8,0-12.8,2.6-16.9,6.8c-5.6,5.6-6.8,11.6-6.8,33.4
			c0,21.4,1.1,27.4,6.8,33.4c4.1,4.1,10.1,6.8,16.9,6.8c6.8,0,12.8-2.6,16.9-6.8c5.6-5.6,6.8-11.6,6.8-33.4
			C1921.4,521,1920.2,515,1915,509.4z M1927.7,585.5c-7.9,7.1-17.6,11.6-30,11.6c-12,0-22.1-4.1-29.6-11.6
			c-11.3-10.5-10.9-22.5-10.9-43.1s0-32.6,10.9-43.1c7.9-7.1,17.6-11.3,29.6-11.3c12,0,22.1,4.1,30,11.3
			c11.3,10.5,10.9,22.5,10.9,43.1S1939,575,1927.7,585.5L1927.7,585.5z"/>
		<path class="st1" d="M2003.5,597.2c-22.9,0-40.5-15-40.5-37.1v-70.9h17.3v70.2c0,14.3,9.4,23.3,23.3,23.3c14.3,0,23.6-9,23.6-23.3
			v-70.2h17.3V560C2044,582.2,2026.4,597.2,2003.5,597.2z"/>
		<path class="st1" d="M2114.6,503.7h-24.8v35.6h24.8c12,0,20.3-6.4,20.3-18C2134.5,510.1,2126.6,503.7,2114.6,503.7z M2115.3,554
			h-25.9v42h-17.3V489.1h43.1c22.1,0,36.4,13.9,36.4,32.3C2151.7,540.1,2137.5,554,2115.3,554L2115.3,554z"/>
		<path class="st2" d="M1458,230.3c1.9-4.1,23.3-55.1,25.9-61.2c2.6,6,26.3,57,28.1,61.2H1458L1458,230.3z M1495.2,122.2h-21.4
			L1390.5,312h31.5c0,0,22.9-52.5,24-54.8h78.8L1550,312h31.5L1495.2,122.2L1495.2,122.2z M1333.5,201c-17.6-9.8-32.6-18-32.6-32.6
			c0-12,11.6-20.3,28.5-20.3c15.4,0,30,6.4,43.5,18.8l3,2.6v-34.9l-0.8-0.4c-13.5-8.6-28.5-13.5-43.5-13.5c-36,0-59.7,20.3-59.7,51
			c0,28.1,24.8,42.8,46.1,55.5c18.4,10.9,36,21,36,37.9c0,8.6-7.9,21.8-29.3,21.8c-18.4,0-35.3-9-48.8-26.3l-3-3.8v39.4l0.8,0.4
			c16.1,12,33.8,17.6,54.4,17.6c31.9,0,55.1-22.1,55.1-52.1C1383,228.4,1356.8,213.7,1333.5,201L1333.5,201z M1211.6,264
			c-5.6-6.4-126.4-141.1-126.4-141.1h-24.4v188.7h29.3V172.1c5.6,6.4,124.6,139.9,124.6,139.9h25.9V123.3h-28.9L1211.6,264
			L1211.6,264z M949.7,230.6h77.7v-27.4h-77.7v-52.5h80.7v-27.4H918.9V312h114v-27.4h-83.3L949.7,230.6L949.7,230.6z M832.3,204.4
			H803v-54h30.4c27.8,0,30.8,18.4,30.8,26.6C864.2,194.2,852.2,204.4,832.3,204.4z M833.4,123.3h-61.2V312H803v-80.3h26.6
			c41.3,0,66-19.9,66-53.6C895.7,151.5,879.5,123.3,833.4,123.3L833.4,123.3z M642.8,198.4c-2.6-3-62.3-75.4-62.3-75.4h-28.1v188.7
			h30.8V169.9c4.5,6,56.6,69.8,56.6,69.8h6c0,0,52.1-63.8,56.6-69.4V312h30.8V123.3h-27.8C705.5,123.3,645.4,195.4,642.8,198.4
			L642.8,198.4z M423,286.5c-41.3,0-72.4-29.6-72.4-69c0-40.1,30.4-69,72.4-69s72.4,28.9,72.4,69C495.4,256.9,464.2,286.5,423,286.5
			z M423,120.7c-59.3,0-103.9,41.6-103.9,96.8c0,46.9,36,96.8,103.2,96.8c68.7,0,104.7-48.8,104.7-96.8
			C526.9,161.6,483.4,120.7,423,120.7z M233.5,286.5c-44.3,0-75.4-28.1-75.4-68.7c0-39.4,31.9-69,74.3-69c21.4,0,41.6,6,64.5,19.1
			l2.6,1.5v-32.6l-1.1-0.4c-26.3-10.9-46.1-15.4-66-15.4c-61.5,0-106.2,42-106.2,99.4c0,36.4,28.5,94.2,104.3,94.2
			c33,0,53.6-8.3,69.8-16.5l1.1-0.4v-33.4l-2.6,1.9C277.8,279.4,254.5,286.5,233.5,286.5L233.5,286.5z"/>
		<path class="st2" d="M1692.9,311.3l10.9,1.1c0,0,164.3-1.1,178.6-1.1c-60.8-43.9-147.4-106.2-153.4-108.8
			c-8.6-3.8-17.3-5.6-26.3-5.6c-32.3,0-57.4,25.1-57.4,57.4C1645.3,286.9,1668.9,306.4,1692.9,311.3L1692.9,311.3z"/>
		<path class="st2" d="M1808.1,100.4c-25.9-18.8-61.5-13.1-80.7,13.1c-8.3,11.3-11.6,22.9-11.6,33.8c0,15.4,6.8,29.6,16.5,40.1
			l7.9,7.1c0,0,133.2,94.5,144.8,102.8c-22.9-70.9-55.9-171.4-59.3-177.1C1821.6,112.1,1815.6,105.7,1808.1,100.4L1808.1,100.4z"/>
		<path class="st2" d="M1882.7,57.7c-28.9,9-41.3,33-41.3,55.5c0,2.3,0,4.5,0.4,6.8l2.3,10.5c0,0,50.3,154.2,54.8,167.7
			c24.4-70.5,58.2-170.3,58.9-177.1c0.4-2.6,0.4-5.3,0.4-7.9c0-6.4-0.8-12.8-3-18.8C1945.8,64.1,1913.5,47.9,1882.7,57.7
			L1882.7,57.7z"/>
		<path class="st2" d="M2095.1,196.9c-9,0-17.6,1.9-26.6,6c-5.6,2.6-92.3,64.5-153.1,108.4c14.3,0,178.6,1.1,178.6,1.1l10.9-1.1
			c23.6-4.5,47.3-24,47.3-57C2152.5,222,2127.3,196.9,2095.1,196.9L2095.1,196.9z"/>
		<path class="st2" d="M2081.6,147.3c0-11.3-3.4-22.9-11.6-33.8c-19.1-25.9-54.4-31.9-80.7-13.1c-7.1,5.3-13.1,11.6-18,20.3
			c-3.4,6-41.6,123.4-58.9,176.7c28.5-20.3,145.2-102.8,145.2-102.8l8.3-7.5C2075.2,176.6,2081.6,162.7,2081.6,147.3z"/>
	</g>
</g>
</svg>
