<?xml version="1.0" encoding="utf-8"?>
<!-- Generator: Adobe Illustrator 21.0.1, SVG Export Plug-In . SVG Version: 6.00 Build 0)  -->
<svg version="1.1" id="layer" xmlns="http://www.w3.org/2000/svg" xmlns:xlink="http://www.w3.org/1999/xlink" x="0px" y="0px"
	 viewBox="0 0 655.3 652" style="enable-background:new 0 0 655.3 652;" xml:space="preserve">
<style type="text/css">
	.st0{fill:#007E3C;}
</style>
<g>
	<path class="st0" d="M85.5,404l12.8,1.3c0,0,193.3-1.3,210.1-1.3C236.9,352.3,135,279,127.9,276c-10.1-4.5-20.4-6.6-30.9-6.6
		c-38,0-67.5,29.5-67.5,67.5C29.5,375.3,57.2,398.2,85.5,404L85.5,404z"/>
	<path class="st0" d="M221,155.8c-30.5-22.1-72.4-15.4-94.9,15.4c-9.8,13.3-13.6,26.9-13.6,39.8c0,18.1,8,34.8,19.4,47.2l9.3,8.4
		c0,0,156.7,111.2,170.4,120.9c-26.9-83.4-65.8-201.7-69.8-208.4C236.9,169.6,229.8,162.1,221,155.8L221,155.8z"/>
	<path class="st0" d="M308.8,105.6c-34,10.6-48.6,38.8-48.6,65.3c0,2.7,0,5.3,0.5,8l2.7,12.4c0,0,59.2,181.4,64.5,197.3
		c28.7-82.9,68.5-200.4,69.3-208.4c0.5-3.1,0.5-6.2,0.5-9.3c0-7.5-0.9-15.1-3.5-22.1C383,113.1,345,94.1,308.8,105.6L308.8,105.6z"
		/>
	<path class="st0" d="M558.7,269.4c-10.6,0-20.7,2.2-31.3,7.1c-6.6,3.1-108.6,75.9-180.1,127.5c16.8,0,210.1,1.3,210.1,1.3l12.8-1.3
		c27.8-5.3,55.6-28.2,55.6-67.1C626.2,298.9,596.5,269.4,558.7,269.4L558.7,269.4z"/>
	<path class="st0" d="M542.8,211c0-13.3-4-26.9-13.6-39.8c-22.5-30.5-64-37.5-94.9-15.4c-8.4,6.2-15.4,13.6-21.2,23.9
		c-4,7.1-48.9,145.2-69.3,207.9c33.5-23.9,170.8-120.9,170.8-120.9l9.8-8.8C535.2,245.5,542.8,229.1,542.8,211z"/>
	<path class="st0" d="M572.4,485.7c0.8-1.7,9.4-22.2,10.5-24.7c1,2.4,10.6,23,11.3,24.7H572.4L572.4,485.7z M587.4,442.1h-8.6
		l-33.6,76.6h12.7c0,0,9.2-21.2,9.7-22.1h31.8l10.2,22.1h12.7L587.4,442.1L587.4,442.1z M522.2,473.9c-7.1-4-13.2-7.3-13.2-13.2
		c0-4.8,4.7-8.2,11.5-8.2c6.2,0,12.1,2.6,17.6,7.6l1.2,1v-14.1l-0.3-0.2c-5.4-3.5-11.5-5.4-17.6-5.4c-14.5,0-24.1,8.2-24.1,20.6
		c0,11.3,10,17.3,18.6,22.4c7.4,4.4,14.5,8.5,14.5,15.3c0,3.5-3.2,8.8-11.8,8.8c-7.4,0-14.2-3.6-19.7-10.6l-1.2-1.5v15.9l0.3,0.2
		c6.5,4.8,13.6,7.1,22,7.1c12.9,0,22.2-8.9,22.2-21C542.1,485,531.6,479,522.2,473.9L522.2,473.9z M473,499.3
		c-2.3-2.6-51-56.9-51-56.9h-9.8v76.2h11.8v-56.3c2.3,2.6,50.3,56.5,50.3,56.5h10.5v-76.2H473L473,499.3L473,499.3z M367.3,485.9
		h31.4v-11.1h-31.4v-21.2h32.6v-11.1h-45v76.2h46v-11.1h-33.6L367.3,485.9L367.3,485.9z M319.9,475.3H308v-21.8h12.3
		c11.2,0,12.4,7.4,12.4,10.7C332.8,471.2,327.9,475.3,319.9,475.3z M320.3,442.5h-24.7v76.2H308v-32.4h10.7c16.7,0,26.6-8,26.6-21.6
		C345.5,453.9,338.9,442.5,320.3,442.5L320.3,442.5z M243.4,472.9c-1-1.2-25.1-30.4-25.1-30.4h-11.3v76.2h12.4v-57.2
		c1.8,2.4,22.8,28.2,22.8,28.2h2.4c0,0,21-25.8,22.8-28v57.2h12.4v-76.2h-11.2C268.7,442.5,244.4,471.6,243.4,472.9L243.4,472.9z
		 M154.7,508.4c-16.7,0-29.2-11.9-29.2-27.8c0-16.2,12.3-27.8,29.2-27.8s29.2,11.7,29.2,27.8C183.9,496.5,171.3,508.4,154.7,508.4z
		 M154.7,441.5c-23.9,0-41.9,16.8-41.9,39.1c0,18.9,14.5,39.1,41.7,39.1c27.7,0,42.3-19.7,42.3-39.1
		C196.6,458,179.1,441.5,154.7,441.5z M78.2,508.4c-17.9,0-30.4-11.3-30.4-27.7c0-15.9,12.9-27.8,30-27.8c8.6,0,16.8,2.4,26,7.7
		l1,0.6V448l-0.4-0.2c-10.6-4.4-18.6-6.2-26.6-6.2c-24.8,0-42.9,17-42.9,40.1c0,14.7,11.5,38,42.1,38c13.3,0,21.6-3.3,28.2-6.7
		l0.4-0.2v-13.5l-1,0.8C96.1,505.6,86.7,508.4,78.2,508.4L78.2,508.4z"/>
</g>
</svg>
