<?xml version="1.0" encoding="UTF-8"?>
<svg version="1.1" xmlns="http://www.w3.org/2000/svg" width="100" height="45">
<path d="M0 0 C33 0 66 0 100 0 C100 14.85 100 29.7 100 45 C67 45 34 45 0 45 C0 30.15 0 15.3 0 0 Z " fill="#FEFBFC" transform="translate(0,0)"/>
<path d="M0 0 C2.92354342 1.82891437 5.43371681 3.86743363 7 7 C7.34717992 12.29449372 7.52421718 15.74663444 4 20 C1.11528002 22.32380221 -0.75586624 22.96448964 -4.4375 23.5 C-9.19197325 22.83270551 -10.67221155 21.40702151 -14 18 C-15.20643566 14.38069302 -15.32268559 11.80768995 -15 8 C-13.25364658 4.57197291 -11.96821293 2.56054433 -8.625 0.625 C-5.46864892 -0.12651216 -3.23500784 -0.46214398 0 0 Z " fill="#C60C2F" transform="translate(82,11)"/>
<path d="M0 0 C11 0 11 0 14.1875 1.5625 C16.6646752 4.89387354 16.50799336 6.93605316 16 11 C15 13.4375 15 13.4375 14 15 C14.7115625 15.86625 14.7115625 15.86625 15.4375 16.75 C16.9484867 18.92582084 17.54036151 20.42602448 18 23 C15.69 23 13.38 23 11 23 C10.0234375 21.20963542 9.046875 19.41927083 8.0703125 17.62890625 C7.08589976 15.83381685 7.08589976 15.83381685 5 15 C5 17.64 5 20.28 5 23 C3.35 23 1.7 23 0 23 C0 15.41 0 7.82 0 0 Z " fill="#C50A2D" transform="translate(29,11)"/>
<path d="M0 0 C0.66 0.33 1.32 0.66 2 1 C1.67 2.65 1.34 4.3 1 6 C0.06027344 5.94779297 0.06027344 5.94779297 -0.8984375 5.89453125 C-1.71570312 5.86746094 -2.53296875 5.84039063 -3.375 5.8125 C-4.59316406 5.76029297 -4.59316406 5.76029297 -5.8359375 5.70703125 C-6.55007812 5.80371094 -7.26421875 5.90039062 -8 6 C-10.30163882 9.45245824 -10.34490322 10.94738713 -10 15 C-7.64046906 17.35953094 -6.22104383 17.49141413 -3 18 C-3 16.68 -3 15.36 -3 14 C-3.99 14 -4.98 14 -6 14 C-6 12.35 -6 10.7 -6 9 C-3.03 9 -0.06 9 3 9 C3.08082094 10.95766281 3.13910778 12.91626728 3.1875 14.875 C3.23970703 16.51082031 3.23970703 16.51082031 3.29296875 18.1796875 C3.19628906 19.11039063 3.09960938 20.04109375 3 21 C-1.23552856 23.82368571 -5.02477314 23.66653757 -10 23 C-12.93423195 21.20353146 -14.47205355 20.0558929 -16 17 C-16.64819703 12.49208429 -17.18459188 7.95699035 -14.75390625 3.94140625 C-10.34037623 -0.30903721 -5.9386194 -0.95550088 0 0 Z " fill="#C71235" transform="translate(63,11)"/>
<path d="M0 0 C4.95 0 9.9 0 15 0 C15 1.65 15 3.3 15 5 C11.7 5 8.4 5 5 5 C5 6.32 5 7.64 5 9 C7.97 9 10.94 9 14 9 C14 10.32 14 11.64 14 13 C11.03 13 8.06 13 5 13 C5.33 14.32 5.66 15.64 6 17 C9.3 17.33 12.6 17.66 16 18 C16 19.65 16 21.3 16 23 C13.70858714 23.05384521 11.41681812 23.09272087 9.125 23.125 C7.84882813 23.14820312 6.57265625 23.17140625 5.2578125 23.1953125 C2 23 2 23 0 21 C-0.22705078 18.84521484 -0.22705078 18.84521484 -0.1953125 16.2109375 C-0.18886719 15.26992188 -0.18242187 14.32890625 -0.17578125 13.359375 C-0.15902344 12.37453125 -0.14226563 11.3896875 -0.125 10.375 C-0.11597656 9.38242187 -0.10695313 8.38984375 -0.09765625 7.3671875 C-0.07404249 4.91135612 -0.0381707 2.45564826 0 0 Z " fill="#C60E31" transform="translate(11,11)"/>
<path d="M0 0 C1.11445498 2.22890995 1.16480286 3.53055106 1.1875 6 C1.20167969 6.70125 1.21585938 7.4025 1.23046875 8.125 C1 10 1 10 -1 12 C-4.5625 11.75 -4.5625 11.75 -8 11 C-9.52491998 7.95016004 -9.23562548 5.3576631 -9 2 C-6.7575278 -1.98661725 -4.02061994 -1.13626216 0 0 Z " fill="#FDF8F9" transform="translate(82,17)"/>
<path d="M0 0 C2.97 0.495 2.97 0.495 6 1 C6 2.32 6 3.64 6 5 C4.02 5.33 2.04 5.66 0 6 C0 4.02 0 2.04 0 0 Z " fill="#F7E0E4" transform="translate(34,16)"/>
</svg>
