<?xml version="1.0" encoding="utf-8"?>
<!-- Generator: Adobe Illustrator 21.0.1, SVG Export Plug-In . SVG Version: 6.00 Build 0)  -->
<svg version="1.1" id="layer" xmlns="http://www.w3.org/2000/svg" xmlns:xlink="http://www.w3.org/1999/xlink" x="0px" y="0px"
	 viewBox="0 0 655.3 652" style="enable-background:new 0 0 655.3 652;" xml:space="preserve">
<style type="text/css">
	.st0{fill-rule:evenodd;clip-rule:evenodd;fill:#BF1228;}
</style>
<g>
	<path class="st0" d="M608.1,326.1c0,47.7-31.8,81.9-78.5,81.9c-44.2,0-77-31.4-77-81.9c0-54.3,39-82.2,78.5-82.2
		C568.9,243.9,608.1,270.4,608.1,326.1L608.1,326.1z M569.8,326.1c0-22.8-11-49.2-39.6-49.2c-26,0-39.6,22.3-39.6,49.2
		c0,30.2,16.9,49.2,39.6,49.2C558.8,375.3,569.8,349.2,569.8,326.1z"/>
	<path class="st0" d="M438.5,393.1c-9.4,6.3-29,14.8-55.9,14.8c-52.8,0-78.8-36.4-78.8-80.9c0-50.1,35.4-83.1,81.7-83.1
		c22.9,0,37.6,3.8,50.7,10.2L422.8,285c-10-4.2-21.4-6.6-35-6.6c-33.5,0-44.8,20-44.8,47.7c0,29.8,15.2,49.2,41.8,49.2
		c9.6,0,16.8-2.1,19.1-3.5V344h-26.9l0-31.4h61.6L438.5,393.1z"/>
	<path class="st0" d="M258.3,405.3c-5.2-19.1-14-33.6-21.2-42.9c-6.1-7.8-10.8-9.5-10.8-9.5c-4.9,0.1-8.3,0.1-12.8-0.1v52.5h-36.8
		V248.2c7.8-1.3,13.3-1.9,21.4-2.7c7.5-0.7,16-1.2,25.3-1.2c12.4,0,23,1.4,31.6,4.1c8.7,2.7,15.7,6.5,21.2,11.3
		c5.6,4.8,9.7,10.7,12.1,17.2c2.6,6.4,3.9,13.1,3.9,20.4c0,9.5-2.3,18.8-7.4,26.7c-4.5,7-12.1,14.2-19.9,19.1v0.7
		c17.5,8,27.4,33.8,37,61.6H258.3L258.3,405.3z M255.3,298.1c0-6.6-2.4-12-7.1-15.6c-4.8-3.8-11.3-5.6-19.3-5.7
		c-0.9,0-4.3,0-6.4,0.1c-2,0.1-7.4,0.5-9.1,0.9v45.3c2.5,0.3,7.5,0.5,11.7,0.5c8.8,0,17-2.4,22.2-6.5
		C252.5,312.9,255.3,306.2,255.3,298.1z"/>
	<path class="st0" d="M47.2,367.7V246.5h108.1l0,33.8H84v27.2h60.4l0,32.1H84v17c0,10.7,6.3,15.2,14.4,15.2c16.6,0,59.8,0,59.8,0
		l0,33.6H84.6C56.9,405.3,47.2,392.6,47.2,367.7z"/>
</g>
</svg>
