<?xml version="1.0" encoding="utf-8"?>
<!-- Generator: Adobe Illustrator 21.0.1, SVG Export Plug-In . SVG Version: 6.00 Build 0)  -->
<svg version="1.1" id="layer" xmlns="http://www.w3.org/2000/svg" xmlns:xlink="http://www.w3.org/1999/xlink" x="0px" y="0px"
	 viewBox="0 0 2277.2 652" style="enable-background:new 0 0 2277.2 652;" xml:space="preserve">
<style type="text/css">
	.st0{fill:#23509B;}
	.st1{fill:#143C6E;}
</style>
<g>
	<g>
		<path class="st0" d="M2074.9,469.5L2074.9,469.5l-9-14.1l0,0l-7.6,12.6l0,0L2074.9,469.5z M2056.1,421.1L2056.1,421.1l9.7,17.7
			h0.7l9-17v-0.7L2056.1,421.1L2056.1,421.1z M2048.9,424.7L2048.9,424.7l0.7,40.8l0,0l11.2-18.4v-0.7L2048.9,424.7z M2085.4,467.3
			v-43.7l0,0l-13.4,23.8v0.7L2085.4,467.3L2085.4,467.3z M2022.9,310.7L2022.9,310.7c0,7.6,0,19.1,0,19.1l5.8,10.5
			c2.2,2.9,17,75.1,17,75.1l18.4-9.7c-1.4-2.2-2.9-5.1-2.9-9c0-1.4,0-2.9,0.7-3.6c-0.7,0-5.1-0.7-5.8-2.2
			c-0.7-1.4-1.4-16.2,0.7-20.2c0-0.7-0.7-1.4-1.4-2.2c-2.9-3.6-13.4-15.5-13.4-17.7c0-1.4,2.2-4.3,2.2-4.3L2022.9,310.7z
			 M1925.8,525.1c0-1.4-2.2-18.4-2.9-23.1c-20.2-1.4-29.6-3.6-31.8-6.9c-2.9-3.6,23.1-160.3,25.3-163.2c1.4-1.4,7.6-6.9,8.3-8.3
			c0.7-1.4,0-34.3,0-42.2h-0.7c-1.4,0-35.7,33.6-46.9,31.8c-8.3-0.7-16.2-5.1-20.9-8.3l17.7,278.3c19.1,5.8,39.4,9.7,60.3,11.2
			l5.8-9.7v-14.8l-8.3-43.7C1930.8,528,1926.5,526.5,1925.8,525.1z M1953.9,57.6c-40.1,0-78,9-111.9,24.5l9.7,156.7
			c4.3-0.7,7.6-0.7,8.3,0c1.4,1.4,6.9,14.1,6.9,16.2c0,1.4,0,2.9-1.4,4.3c4.3,1.4,13.4,3.6,13.4,3.6s24.5-32.5,31-37.2
			c1.4-0.7,20.9-9.7,28.9-13.4c0.7-0.7,1.4-1.4,1.4-2.9c0-2.9,2.2-17,2.2-20.9c0-2.2,5.8-7.6,6.9-11.2c0.7-3.6,0.7-22.4,1.4-24.5
			c0.7-2.9,16.2-13.4,20.2-15.5c2.2-1.4,20.2-0.7,22.4-0.7c7.6,1.4,14.1,8.3,14.1,11.2c0,2.2-0.7,27.4-0.7,27.4c0,2.2,9,16.2,9,20.9
			c0,4.3-0.7,14.1-0.7,16.2c0,0.7,0.7,2.2,1.4,3.6c5.1,2.9,25.3,15.5,28.9,17.7s16.2,60.3,16.2,60.3l16.2,32.5c0,0,4.3-1.4,5.8-0.7
			c1.4,0.7,2.9,38.6,2.9,38.6l0,0c2.2,4.3,7.6,14.8,7.6,18.4c0,3.6-3.6,7.6-8.3,10.5c0,0.7,0,1.4,0,2.2c0,3.6-1.4,6.9-2.9,9
			c5.8,2.9,16.2,8.3,16.2,9c0,2.2,0,4.3,0,58.5c0,0-6.9,5.1-7.6,5.1s-23.1-1.4-37.2-2.2c0.7,10.5,1.4,19.1,0.7,21.7
			c-6.9,2.9-23.1,5.1-34.3,5.8c-2.2,8.3-9.7,34.3-11.9,34.3s-4.3,0-4.3,0s-14.1,20.2-14.1,22.4c0,1.4,5.1,19.1,5.1,19.1l13.4,11.2
			c121.7-26,213-134.3,213-263.5C2223.3,178.5,2102.3,57.6,1953.9,57.6z"/>
		<path class="st1" d="M1828.3,288.3c-3.6-2.9-9.7-17-9-25.3c0-7.6,5.1-16.2,6.9-19.1c0.7-0.7,2.2-1.4,4.3-2.2l-9.7-151.3
			c-83.8,45.8-140.1,133.9-140.1,236.5c0,114.4,71.1,211.6,171.5,250.9l-18.4-287.4C1831.9,289.7,1829.8,289,1828.3,288.3z"/>
	</g>
	<g>
		<path class="st1" d="M910.3,199.1c11.2,0,20.9,9,20.9,20.9c0,11.2-9,20.2-20.9,20.2c-11.2,0-20.2-9-20.2-20.2
			C890,208.1,899.1,199.1,910.3,199.1z"/>
		<path class="st1" d="M894.7,279.2c0-2.9,2.2-5.8,5.8-5.8h19.1c2.9,0,5.8,2.9,5.8,5.8v147.3h-25.3c-2.9,0-5.8-2.9-5.8-5.8
			L894.7,279.2L894.7,279.2z"/>
		<path class="st1" d="M1180.3,199.1c11.2,0,20.9,9,20.9,20.9c0,11.2-9,20.2-20.9,20.2c-11.2,0-20.2-9-20.2-20.2
			C1160.4,208.1,1168.4,199.1,1180.3,199.1z"/>
		<path class="st1" d="M1164.8,279.2c0-2.9,2.9-5.8,5.8-5.8h19.1c2.9,0,5.8,2.9,5.8,5.8v147.3h-25.3c-2.9,0-5.8-2.9-5.8-5.8
			L1164.8,279.2L1164.8,279.2z"/>
		<path class="st1" d="M1111.3,195.5h-19.1c-2.9,0-5.8,2.2-5.8,5.8v85.2c-13.4-11.2-30.3-16.2-46.9-16.2c-14.1,0-26.7,3.6-37.2,9.7
			c-23.1,13.4-39.4,39.4-39.4,69.7c0,30.3,15.5,55.6,39.4,69.7c10.5,5.8,24.5,10.5,38.6,10.5c18.4,0,35-5.8,47.7-17v8.3
			c0,2.9,2.2,5.8,5.8,5.8h24.5V201.3C1116.4,198.4,1114.2,195.5,1111.3,195.5z M1086.1,378.9c-10.5,14.1-26.7,21.7-42.2,21.7
			c-29.6,0-50.5-23.1-50.5-50.5c0-26.7,19.1-50.5,49.1-50.5c18.4,0,34.3,9.7,43.7,21.7V378.9L1086.1,378.9z"/>
		<path class="st1" d="M1380.7,273.5h-18.4c-2.9,0-5.8,2.9-5.8,5.8v8.3c-14.1-11.9-30.3-17-48.4-17c-14.1,0-26.7,3.6-37.2,9.7
			c-23.1,13.4-39.4,39.4-39.4,69.7c0,30.3,15.5,55.6,39.4,69.7c10.5,5.8,24.5,10.5,38.6,10.5c18.4,0,34.3-5.8,45.8-16.2v8.3
			c0,19.1-2.9,31-8.3,39.4c-7.6,11.2-20.9,17.7-37.2,17.7c-23.1,0-36.5-10.5-47.7-23.8l0,0c-2.2-1.4-5.1-1.4-7.6,0l-0.7,0.7
			l-17.7,16.2c9.7,15.5,35,35.7,74.4,35.7c30.3,0,53.4-14.1,66.1-37.9c5.8-11.9,9-27.4,9-50.5V278.5
			C1386.8,276.4,1384.6,273.5,1380.7,273.5z M1355.4,378.9c-10.5,14.1-26.7,21.7-42.2,21.7c-29.6,0-50.5-23.1-50.5-50.5
			c0-26.7,19.1-50.5,49.1-50.5c18.4,0,34.3,9.7,43.7,21.7V378.9L1355.4,378.9z"/>
		<path class="st1" d="M525,350.7c0-45.1-31-80.1-73.6-80.1c-43,0-75.1,34.3-75.1,80.1s35,80.1,79.4,80.1c31,0,53.4-14.1,64.6-28.9
			l-17-16.2c-2.2-1.4-4.3-0.7-5.8,0c-0.7,0.7-1.4,1.4-1.4,1.4c-8.3,8.3-20.2,16.2-39.4,16.2c-26.7,0-47.7-20.9-49.8-45.8h111.9
			c2.9,0,5.8-2.2,5.8-5.1C525,351.5,525,350.7,525,350.7L525,350.7z M409.2,330.5c5.1-20.2,23.1-33.6,43-33.6
			c18.4,0,35.7,13.4,40.1,33.6H409.2z"/>
		<path class="st1" d="M1570.9,350.7c0-45.1-31-80.1-73.6-80.1c-43,0-75.1,34.3-75.1,80.1s35,80.1,79.4,80.1
			c31,0,53.4-14.1,64.6-28.9l-17-16.2c-2.2-1.4-4.3-0.7-5.8,0c-0.7,0.7-1.4,1.4-1.4,1.4c-8.3,8.3-20.2,16.2-39.4,16.2
			c-26.7,0-48.4-20.9-49.8-45.8h111.9c2.9,0,5.8-2.2,5.8-5.1l0,0l0,0C1570.9,351.5,1570.9,350.7,1570.9,350.7L1570.9,350.7z
			 M1455,330.5c5.1-20.2,23.1-33.6,43-33.6c18.4,0,35.7,13.4,40.1,33.6H1455z"/>
		<path class="st1" d="M324.3,199.1c11.2,0,20.9,9,20.9,20.9c0,11.2-9,20.2-20.9,20.2c-11.2,0-20.2-9-20.2-20.2
			C304.5,208.1,313.5,199.1,324.3,199.1z"/>
		<path class="st1" d="M340.2,439.9c0,20.9-2.9,33.6-9.7,43c-11.2,16.2-29.6,25.3-50.5,25.3c-6.9,0-14.1-0.7-18.4-2.2l5.1-23.1
			c0.7-2.9,3.6-5.1,6.9-4.3h5.8c9,0,18.4-3.6,23.8-11.2c4.3-5.1,5.8-13.4,5.8-27.4v-6.1v-156c0-2.9,2.2-5.8,5.8-5.8h19.1
			c2.9,0,5.8,2.9,5.8,5.8v154.5L340.2,439.9L340.2,439.9z"/>
		<path class="st1" d="M693.3,297.3c-13.4-16.2-33.6-26.7-55.6-26.7c-22,0-37.9,10.5-45.8,17.7v-9c0-2.9-2.2-5.8-5.8-5.8h-17.7
			c-2.9,0-5.8,2.9-5.8,5.8v141.9c0,2.9,2.9,5.8,5.8,5.8h19.1c2.9,0,5.8-2.9,5.8-5.8v-99.3c9-11.2,23.8-21.7,43.7-21.7
			c12.6,0,24.5,5.8,31.8,14.8c5.1,6.9,9,16.2,9,35.7v5.8v64.6c0,2.9,2.2,5.8,5.8,5.8h19.1h5.8v-75.1
			C708.1,325.5,703,309.9,693.3,297.3z"/>
		<path class="st1" d="M832.3,306L832.3,306C832.3,307,832.3,306,832.3,306L832.3,306z"/>
		<path class="st1" d="M752.8,390.8L752.8,390.8L752.8,390.8C753.6,390.8,753.6,390.8,752.8,390.8z"/>
		<path class="st1" d="M740.2,409.2c17,13.4,37.2,21.7,61.7,21.7c29.6,0,57-17.7,57-46.9c0-31.8-31.8-42.2-55.6-48.4
			C787.9,332,776,328,776,317.9c0-11.9,12.6-19.1,27.4-19.1c10.5,0,20.2,3.6,28.2,9l0,0c2.9,1.4,6.9,0.7,8.3-1.4l8.3-11.2l0.7-0.7
			c2.2-2.9,2.2-5.8,0-8.3l-0.7-0.7c-11.9-8.3-26.7-13.4-45.8-13.4c-27.4,0-56.3,14.8-56.3,47.7c0,21.7,16.2,33.6,35,39.4
			c22.4,7.6,48.4,8.3,48.4,26c0,11.9-13.4,19.1-26.7,19.1c-13.4,0-27.4-4.3-40.1-13.4l0,0c-2.2-2.2-5.8-1.4-8.3,0.7L740.2,409.2z"/>
		<path class="st1" d="M262.9,294.4c0-2.9-2.2-5.8-5.8-5.8h-92.1v25.3c0,2.9,2.9,5.1,5.8,5.1h59.2v58.5
			c-11.9,11.9-31.8,21.7-55.6,21.7c-49.1,0-86.3-35-86.3-86.3c0-49.1,36.5-86.3,82.3-86.3c22.4,0,43.7,9,57.8,21.7l0,0l0,0
			c2.2,2.2,5.1,2.2,7.6,0l0,0l0,0l14.1-13.4l0,0l0,0l0,0c1.4-2.2,2.2-5.1,0.7-7.6c0,0,0-0.7-0.7-0.7l0,0l0,0l0,0l0,0
			c-20.2-19.1-49.1-31-79.4-31c-65.3,0-115.2,51.3-115.2,117.3c0,67.5,50.5,117.3,118.1,117.3c35,0,69-17.7,88.4-42.2v-93.5
			L262.9,294.4L262.9,294.4z"/>
	</g>
</g>
</svg>
