<?xml version="1.0" encoding="utf-8"?>
<!-- Generator: Adobe Illustrator 21.0.1, SVG Export Plug-In . SVG Version: 6.00 Build 0)  -->
<svg version="1.1" id="layer" xmlns="http://www.w3.org/2000/svg" xmlns:xlink="http://www.w3.org/1999/xlink" x="0px" y="0px"
	 viewBox="0 0 655.3 652" style="enable-background:new 0 0 655.3 652;" xml:space="preserve">
<style type="text/css">
	.st0{fill:#23509B;}
	.st1{fill:#143C6E;}
</style>
<g>
	<path class="st0" d="M451.3,469.5L451.3,469.5l-9-14.1l0,0l-7.6,12.6l0,0L451.3,469.5z M432.5,421.1L432.5,421.1l9.7,17.7h0.7l9-17
		v-0.7H432.5L432.5,421.1z M425.3,424.7L425.3,424.7l0.7,40.8l0,0l11.2-18.4v-0.7L425.3,424.7z M461.8,467.3v-43.7l0,0l-13.4,23.8
		v0.7L461.8,467.3L461.8,467.3z M399.3,310.7L399.3,310.7c0,7.6,0,19.1,0,19.1l5.8,10.5c2.2,2.9,17,75.1,17,75.1l18.4-9.7
		c-1.4-2.2-2.9-5.1-2.9-9c0-1.4,0-2.9,0.7-3.6c-0.7,0-5.1-0.7-5.8-2.2c-0.7-1.4-1.4-16.2,0.7-20.2c0-0.7-0.7-1.4-1.4-2.2
		c-2.9-3.6-13.4-15.5-13.4-17.7c0-1.4,2.2-4.3,2.2-4.3L399.3,310.7z M302.2,525.1c0-1.4-2.2-18.4-2.9-23.1
		c-20.2-1.4-29.6-3.6-31.8-6.9c-2.9-3.6,23.1-160.3,25.3-163.2c1.4-1.4,7.6-6.9,8.3-8.3c0.7-1.4,0-34.3,0-42.2h-0.7
		c-1.4,0-35.7,33.6-46.9,31.8c-8.3-0.7-16.2-5.1-20.9-8.3l17.7,278.3c19.1,5.8,39.4,9.7,60.3,11.2l5.8-9.7v-14.8l-8.3-43.7
		C307.2,528,302.9,526.5,302.2,525.1z M330.3,57.6c-40.1,0-78,9-111.9,24.5l9.7,156.7c4.3-0.7,7.6-0.7,8.3,0
		c1.4,1.4,6.9,14.1,6.9,16.2c0,1.4,0,2.9-1.4,4.3c4.3,1.4,13.4,3.6,13.4,3.6s24.5-32.5,31-37.2c1.4-0.7,20.9-9.7,28.9-13.4
		c0.7-0.7,1.4-1.4,1.4-2.9c0-2.9,2.2-17,2.2-20.9c0-2.2,5.8-7.6,6.9-11.2c0.7-3.6,0.7-22.4,1.4-24.5c0.7-2.9,16.2-13.4,20.2-15.5
		c2.2-1.4,20.2-0.7,22.4-0.7c7.6,1.4,14.1,8.3,14.1,11.2c0,2.2-0.7,27.4-0.7,27.4c0,2.2,9,16.2,9,20.9c0,4.3-0.7,14.1-0.7,16.2
		c0,0.7,0.7,2.2,1.4,3.6c5.1,2.9,25.3,15.5,28.9,17.7s16.2,60.3,16.2,60.3l16.2,32.5c0,0,4.3-1.4,5.8-0.7c1.4,0.7,2.9,38.6,2.9,38.6
		l0,0c2.2,4.3,7.6,14.8,7.6,18.4s-3.6,7.6-8.3,10.5c0,0.7,0,1.4,0,2.2c0,3.6-1.4,6.9-2.9,9c5.8,2.9,16.2,8.3,16.2,9
		c0,2.2,0,4.3,0,58.5c0,0-6.9,5.1-7.6,5.1s-23.1-1.4-37.2-2.2c0.7,10.5,1.4,19.1,0.7,21.7c-6.9,2.9-23.1,5.1-34.3,5.8
		c-2.2,8.3-9.7,34.3-11.9,34.3s-4.3,0-4.3,0s-14.1,20.2-14.1,22.4c0,1.4,5.1,19.1,5.1,19.1l13.4,11.2c121.7-26,213-134.3,213-263.5
		C599.7,178.5,478.7,57.6,330.3,57.6z"/>
	<path class="st1" d="M204.7,288.3c-3.6-2.9-9.7-17-9-25.3c0-7.6,5.1-16.2,6.9-19.1c0.7-0.7,2.2-1.4,4.3-2.2l-9.7-151.3
		C113.4,136.2,57.1,224.3,57.1,326.9c0,114.4,71.1,211.6,171.5,250.9l-18.4-287.4C208.3,289.7,206.2,289,204.7,288.3z"/>
</g>
</svg>
