<?xml version="1.0" encoding="utf-8"?>
<!-- Generator: Adobe Illustrator 21.0.1, SVG Export Plug-In . SVG Version: 6.00 Build 0)  -->
<svg version="1.1" id="layer" xmlns="http://www.w3.org/2000/svg" xmlns:xlink="http://www.w3.org/1999/xlink" x="0px" y="0px"
	 viewBox="0 0 655.3 652" style="enable-background:new 0 0 655.3 652;" xml:space="preserve">
<style type="text/css">
	.st0{clip-path:url(#SVGID_1_);}
	.st1{fill:#00A2E1;}
	.st2{fill:#FFFFFF;}
</style>
<g id="g10" transform="matrix(1.3333333,0,0,-1.3333333,0,869.33333)">
	<g id="g12">
		<g>
			<g>
				<g>
					<defs>
						<rect id="SVGID_3_" x="-376.4" y="-131.7" width="991.9" height="991.9"/>
					</defs>
					<clipPath id="SVGID_1_">
						<use xlink:href="#SVGID_3_"  style="overflow:visible;"/>
					</clipPath>
					<g id="g14" class="st0">
						<g id="g20" transform="translate(599.3838,326.0093)">
							<path id="path22" class="st1" d="M-178.2,81.5c0-95.5-78.6-172.9-175.4-172.9S-529.1-14-529.1,81.5
								c0,95.4,78.6,172.9,175.4,172.9S-178.2,176.9-178.2,81.5"/>
						</g>
						<g id="g24" transform="translate(290.8647,398.8506)">
							<path id="path26" class="st2" d="M-67.7,55.4c-0.3-0.8,0.3-1.8,1.4-1.8l15,0.2c0,0-20.1-80.5-24.1-96.9
								c-5.1-20.5-13.4-41.3-19.2-48.7c-5.2-6.6-8.7-8.6-12.3-8.6c-5,0-7.5,3.6-9,9.5c-0.9,4.3-3.8,10.1-9.9,10.1
								c-6.4,0-15.1-7.3-15.1-16c0-11.9,19.8-14.5,26.4-14.5c13,0,30,8.3,41.2,21.3c14.5,16.3,22.5,36.9,30,65.7l18.3,78.2l19.3-0.3
								c1.5,0,2.2,1.1,2.6,1.9l2.5,7.2c0.3,0.9-0.2,1.9-1.4,1.9H-22c4.7,16.6,11.9,41.1,25.3,54.6c1.2,1.2,4.5,4.1,7.6,4.1
								c5.4,0.1,6.9-3.1,9.2-8c2.2-4.9,1.8-13.4,9.2-13.4c8.6,0,15.1,9.6,15.1,16.3c0,9-15.6,14.8-28.1,14.8
								c-14.7,0-28.7-6.2-38.9-16.4c-14.6-14.8-21.4-36.8-25.8-51.9l-15,0.2c-1,0-1.9-0.9-2.1-1.6L-67.7,55.4z"/>
						</g>
						<g id="g28" transform="translate(411.1387,271.624)">
							<path id="path30" class="st2" d="M-110.8,101c-0.2-3.9-2.4-15-14.7-15c-7.2,0-12.2,4.7-11.9,12.8c0.3,8.4,6.3,15.1,14.5,15.4
								C-117.1,114.2-110.4,110.5-110.8,101"/>
						</g>
						<g id="g32" transform="translate(477.7617,271.624)">
							<path id="path34" class="st2" d="M-134.7,101c-0.2-3.9-2.4-15-14.6-15c-7.2,0-12.2,4.7-11.9,12.8c0.3,8.4,6.3,15.1,14.5,15.4
								C-140.9,114.2-134.2,110.5-134.7,101"/>
						</g>
						<g id="g36" transform="translate(544.4102,271.624)">
							<path id="path38" class="st2" d="M-158.6,101c-0.2-3.9-2.4-15-14.7-15c-7.2,0-12.2,4.7-11.9,12.8c0.3,8.4,6.3,15.1,14.5,15.4
								C-164.8,114.2-158.1,110.5-158.6,101"/>
						</g>
						<g id="g40" transform="translate(257.4336,497.2783)">
							<path id="path42" class="st2" d="M-55.8,20.2C-64.5,20-71,12.7-71.6,3.8c-0.5-8.7,4.8-13.7,12.4-13.7
								c13.1,0,15.7,11.8,15.9,16C-42.5,16.2-49.6,20.2-55.8,20.2"/>
						</g>
						<g id="g44" transform="translate(224.23,318.6553)">
							<path id="path46" class="st2" d="M-43.9,84.1l13.7,33.1c2.8,6.7,6.2,15.2,6.2,20.9c0,7.4-5.6,9.2-9.6,9.2
								c-18.5,0-38.3-21.6-46-30.3c-0.5-0.6-0.9-1.7,0.2-2.8l3.5-3.3c0.7-0.6,1.8-0.6,2.6,0.2c0,0,9.1,9.9,12.4,12.3
								c0.9,0.7,2.3,1.6,3.2,1.6c1.2,0,1.8-1.8,1.8-2.7c0-3.1-3.1-10.4-4.5-14.2l-14.2-35.9c-5-12.1-7.3-18.5-7.3-24
								c0-6.2,3.4-11,12-11c19.8,0,44.7,29.8,44.7,29.8c0.9,1.1,0.5,2.2-0.1,2.7l-3.7,3.5c-0.6,0.6-1.7,0.8-2.7-0.1
								c0,0-13.4-14.9-17.9-14.9c-2.1,0-2,2.5-2,2.9c0,2.2,1.4,6.2,2.1,8L-43.9,84.1z"/>
						</g>
					</g>
				</g>
			</g>
		</g>
	</g>
</g>
</svg>
