<?xml version="1.0" encoding="utf-8"?>
<!-- Generator: Adobe Illustrator 21.0.1, SVG Export Plug-In . SVG Version: 6.00 Build 0)  -->
<svg version="1.1" id="layer" xmlns="http://www.w3.org/2000/svg" xmlns:xlink="http://www.w3.org/1999/xlink" x="0px" y="0px"
	 viewBox="0 0 652 652" style="enable-background:new 0 0 652 652;" xml:space="preserve">
<style type="text/css">
	.st0{clip-path:url(#SVGID_2_);}
	.st1{fill:#00A2E1;}
	.st2{fill:#FFFFFF;}
</style>
<g id="g10" transform="matrix(1.3333333,0,0,-1.3333333,0,869.33333)">
	<g id="g12">
		<g>
			<g>
				<defs>
					<rect id="SVGID_1_" x="-190.2" y="-27.2" width="869.3" height="869.3"/>
				</defs>
				<clipPath id="SVGID_2_">
					<use xlink:href="#SVGID_1_"  style="overflow:visible;"/>
				</clipPath>
				<g id="g14" class="st0">
					<g id="g20" transform="translate(599.3838,326.0093)">
						<path id="path22" class="st1" d="M-149.8,81.5c0-111.6-91.8-202-205-202s-205,90.4-205,202c0,111.5,91.8,202,205,202
							S-149.8,193-149.8,81.5"/>
					</g>
					<g id="g24" transform="translate(290.8647,398.8506)">
						<path id="path26" class="st2" d="M-72.7,63.3c-0.3-0.9,0.3-2.1,1.6-2.1l17.5,0.2c0,0-23.5-94.1-28.2-113.2
							c-6-23.9-15.6-48.3-22.4-56.9c-6.1-7.7-10.2-10.1-14.4-10.1c-5.8,0-8.8,4.2-10.5,11.1c-1.1,5-4.4,11.8-11.6,11.8
							c-7.5,0-17.7-8.5-17.7-18.7c0-13.9,23.1-17,30.9-17c15.2,0,35,9.7,48.2,24.9c16.9,19.1,26.3,43.1,35,76.8l21.4,91.4l22.5-0.4
							c1.8,0,2.6,1.3,3,2.2l2.9,8.4c0.3,1-0.2,2.2-1.6,2.2h-23.2c5.5,19.4,13.9,48,29.6,63.8c1.4,1.4,5.3,4.8,8.9,4.8
							c6.3,0.1,8.1-3.6,10.7-9.4c2.6-5.7,2.1-15.6,10.8-15.6c10,0,17.6,11.2,17.6,19c0,10.5-18.2,17.3-32.8,17.3
							c-17.2,0-33.5-7.3-45.4-19.2c-17.1-17.3-25-43-30.2-60.7l-17.5,0.2c-1.2,0-2.2-1-2.5-1.9L-72.7,63.3z"/>
					</g>
					<g id="g28" transform="translate(411.1387,271.624)">
						<path id="path30" class="st2" d="M-102.8,95.1c-0.2-4.5-2.8-17.5-17.2-17.5c-8.4,0-14.3,5.5-13.9,15c0.4,9.8,7.4,17.7,16.9,18
							C-110.1,110.6-102.3,106.2-102.8,95.1"/>
					</g>
					<g id="g32" transform="translate(477.7617,271.624)">
						<path id="path34" class="st2" d="M-119.4,95.1c-0.2-4.5-2.8-17.5-17.1-17.5c-8.4,0-14.3,5.5-13.9,15c0.4,9.8,7.4,17.7,16.9,18
							C-126.7,110.6-118.9,106.2-119.4,95.1"/>
					</g>
					<g id="g36" transform="translate(544.4102,271.624)">
						<path id="path38" class="st2" d="M-136.1,95.1c-0.2-4.5-2.8-17.5-17.2-17.5c-8.4,0-14.3,5.5-13.9,15c0.4,9.8,7.4,17.7,17,18
							C-143.4,110.6-135.6,106.2-136.1,95.1"/>
					</g>
					<g id="g40" transform="translate(257.4336,497.2783)">
						<path id="path42" class="st2" d="M-64.4,38.7c-10.2-0.2-17.7-8.7-18.4-19.1c-0.6-10.2,5.6-16,14.5-16
							C-53,3.6-50,17.4-49.7,22.3C-48.9,34.1-57.1,38.7-64.4,38.7"/>
					</g>
					<g id="g44" transform="translate(224.23,318.6553)">
						<path id="path46" class="st2" d="M-56.1,83.3l16,38.7c3.3,7.8,7.3,17.8,7.3,24.4c0,8.6-6.5,10.7-11.2,10.7
							c-21.6,0-44.7-25.2-53.7-35.4c-0.6-0.7-1.1-2,0.2-3.3l4.1-3.9c0.8-0.7,2.1-0.7,3,0.2c0,0,10.6,11.6,14.5,14.4
							c1,0.8,2.7,1.9,3.7,1.9c1.4,0,2.1-2.1,2.1-3.2c0-3.6-3.6-12.2-5.3-16.6L-92,69.3c-5.8-14.1-8.5-21.6-8.5-28
							c0-7.2,4-12.9,14-12.9c23.1,0,52.2,34.8,52.2,34.8c1.1,1.3,0.6,2.6-0.1,3.2l-4.3,4.1c-0.7,0.7-2,0.9-3.1-0.1
							c0,0-15.6-17.4-20.9-17.4c-2.4,0-2.3,2.9-2.3,3.4c0,2.6,1.6,7.2,2.4,9.4L-56.1,83.3z"/>
					</g>
				</g>
			</g>
		</g>
	</g>
</g>
</svg>
