<?xml version="1.0" encoding="utf-8"?>
<!-- Generator: Adobe Illustrator 21.0.1, SVG Export Plug-In . SVG Version: 6.00 Build 0)  -->
<svg version="1.1" id="layer" xmlns="http://www.w3.org/2000/svg" xmlns:xlink="http://www.w3.org/1999/xlink" x="0px" y="0px"
	 viewBox="0 0 1380.1 652" style="enable-background:new 0 0 1380.1 652;" xml:space="preserve">
<style type="text/css">
	.st0{fill:#454347;}
</style>
<g id="XMLID_93_">
	<path id="XMLID_116_" class="st0" d="M338.2,298.2c0,60.1-45.7,91.2-121.6,91.2H89.1V54.8h115c86.4,0,113.9,40.9,113.9,84.6
		c0,48.8-33.7,70.6-50.1,73.3C285.2,214.5,338.2,233.7,338.2,298.2 M207.2,79.3h-91v125.5h94.7c46.1,0,80.7-16.2,80.7-62.3
		C291.4,99,261.4,79.3,207.2,79.3 M311,296c0-54.5-45.7-67.1-93.4-67.1H116.2v136h103C270.2,365.4,311,348.1,311,296"/>
	<path id="XMLID_113_" class="st0" d="M594.9,239v77.2c0,68.5-73.7,77.2-106.9,77.2c-34.6,0-110.4-10.5-110.4-78.5
		c0-78.5,102.1-81.6,126.9-81.6c35.4,0,54.5,3.5,63.2,5.2c0-52.7-27.6-79.4-87.3-79.4c-34.6,0-62.8,7.9-75.5,11.4v-24.9
		c19.7-6.1,47-11.8,77.2-11.8C560.6,133.5,594.9,170.5,594.9,239 M568.5,261.7c-7-0.9-31.1-4.8-67.1-4.8c-33.2,0-96.9,7.4-96.9,57.5
		c0,46.1,50.5,54.9,83.8,54.9c32.4,0,80.3-8.3,80.3-54L568.5,261.7L568.5,261.7z"/>
	<rect id="XMLID_24_" x="647" y="55" class="st0" width="26.7" height="334.2"/>
	<path id="XMLID_23_" class="st0" d="M860.7,368.4c25.4,0,50.5-4.8,74.1-13.6v24.9c-24.5,8.7-50.5,13.6-77.2,13.6
		c-56.2,0-123.8-21.9-123.8-130.3c0-108.3,67.6-130.3,123.8-130.3c26.2,0,52.3,5.2,77.2,13.6v24.9c-23.6-8.3-49.2-13.6-74.1-13.6
		c-60.1,0-99.9,26.7-99.9,105.6C760.3,342.4,800.5,368.4,860.7,368.4"/>
	<rect id="XMLID_22_" x="994.9" y="136.8" class="st0" width="26.7" height="252.2"/>
	<path id="XMLID_107_" class="st0" d="M1290.6,239v77.2c0,68.5-73.7,77.2-107.4,77.2c-34.6,0-110.4-10.5-110.4-78.5
		c0-78.5,102.1-81.6,126.8-81.6c35.4,0,54.5,3.5,63.2,5.2c0-52.7-27.6-79.4-87.3-79.4c-34.6,0-62.8,7.9-75.5,11.4v-24.9
		c19.7-6.1,47-11.8,77.2-11.8C1256.3,133.5,1290.6,170.5,1290.6,239 M1264,261.7c-7-0.9-31.1-4.8-67.1-4.8
		c-33.2,0-96.9,7.4-96.9,57.5c0,46.1,50.5,54.9,83.8,54.9c32.4,0,80.3-8.3,80.3-54v-53.6H1264z"/>
	<rect id="XMLID_19_" x="89.1" y="516.7" class="st0" width="7.9" height="78.5"/>
	<path id="XMLID_18_" class="st0" d="M256.6,544.3v51h-8.3v-51c0-11.4-4.8-21-23.2-21c-9.6,0-18.4,2.6-24.9,5.2v66.7h-7.9v-71.5
		c5.7-3.1,18.4-8.3,33.7-8.3C245.7,515.6,256.6,525,256.6,544.3"/>
	<path id="XMLID_17_" class="st0" d="M399.6,575.3c0,12.7-9.6,21.9-28.4,21.9c-10.5,0-18.4-2.6-24.9-5.7v-8.7
		c7,3.9,15.3,6.1,24.5,6.1c12.2,0,21-4.4,21-14c0-23.6-44.4-10.1-44.4-38.1c0-11.4,7.4-21.9,26.7-21.9c8.3,0,15.7,2.2,21.4,4.8v7.9
		c-4.8-2.6-11.8-4.8-20.6-4.8c-10.5,0-19.7,3.9-19.7,14C355,556.5,399.6,544.3,399.6,575.3"/>
	<path id="XMLID_16_" class="st0" d="M546.2,516.7h8.3v46.1c0,21.9-11.8,33.7-32.8,33.7s-32.8-11.8-32.8-33.7v-46.1h8.3v46.6
		c0,17.5,8.3,26.2,24.5,26.2s24.9-8.7,24.9-26.2v-46.6H546.2z"/>
	<path id="XMLID_15_" class="st0" d="M656.8,528.1v67.1H649v-72.4c4.4-2.2,19.2-7.4,37.2-7.4v7.9
		C673.4,523.7,662.9,526.3,656.8,528.1"/>
	<path id="XMLID_99_" class="st0" d="M831.8,548.2v24.1c0,21.4-21.9,24.1-31.9,24.1s-32.8-3.1-32.8-24.5c0-24.5,30.6-25.4,37.6-25.4
		c10.5,0,16.2,1.3,18.8,1.7c0-16.6-8.3-24.9-26.2-24.9c-10.1,0-18.8,2.6-22.3,3.5v-7.9c5.7-1.7,14-3.9,22.7-3.9
		C821.3,515.6,831.8,526.8,831.8,548.2 M823.5,555.6c-2.2-0.4-9.2-1.3-20.1-1.3c-10.1,0-28.9,2.2-28.9,17.9
		c0,14.4,15.3,17.1,24.9,17.1c9.6,0,24.1-2.6,24.1-17.1V555.6L823.5,555.6z"/>
	<path id="XMLID_12_" class="st0" d="M989.3,544.3v51H981v-51c0-11.4-4.8-21-23.2-21c-9.6,0-18.4,2.6-24.9,5.2v66.7H925v-71.5
		c5.7-3.1,18.4-8.3,33.7-8.3C977.9,515.6,989.3,525,989.3,544.3"/>
	<path id="XMLID_11_" class="st0" d="M1118.7,588.9c7.4,0,15.3-1.3,22.3-4.4v7.9c-7.4,2.6-15.3,4.4-22.7,4.4
		c-16.6,0-37.2-7-37.2-40.5c0-33.7,20.1-40.5,37.2-40.5c7.9,0,15.7,1.7,22.7,4.4v7.9c-7-2.6-14.4-4.4-22.3-4.4
		c-17.9,0-29.7,8.3-29.7,33.2C1089.2,581,1101,588.9,1118.7,588.9"/>
	<path id="XMLID_94_" class="st0" d="M1291.1,556.5c0,3.5,0,3.9,0,4.4h-60.6c0,2.6,0.9,4.8,1.3,7c2.2,15.3,13.1,21,28.4,21
		c9.6,0,19.2-1.7,25.8-5.7v8.3c-7.4,3.5-17.5,5.2-26.2,5.2c-17.9,0-37.6-7.4-37.6-38.7c0-12.7,3.9-42.2,35-42.2
		C1290.6,515.6,1291.1,551.3,1291.1,556.5 M1230.5,553.5h52.3c0-3.9-0.9-30.6-26.2-30.6C1239.7,522.8,1230.9,534.2,1230.5,553.5"/>
</g>
</svg>
